<svg width="50" height="44" viewBox="0 0 50 44" fill="none" xmlns="http://www.w3.org/2000/svg">
<path d="M46.2499 32.45H40.6249V27.5C40.6249 26.598 39.7749 25.85 38.7499 25.85C37.7249 25.85 36.8749 26.598 36.8749 27.5V32.45H31.2499C30.2249 32.45 29.3749 33.198 29.3749 34.1C29.3749 35.002 30.2249 35.75 31.2499 35.75H36.8749V40.7C36.8749 41.602 37.7249 42.35 38.7499 42.35C39.7749 42.35 40.6249 41.602 40.6249 40.7V35.75H46.2499C47.2749 35.75 48.1249 35.002 48.1249 34.1C48.1249 33.198 47.2749 32.45 46.2499 32.45Z" fill="#292D32"/>
<path d="M50 14.344V4.356C50 1.254 48.4 0 44.425 0H34.325C30.35 0 28.75 1.254 28.75 4.356V14.322C28.75 17.446 30.35 18.678 34.325 18.678H44.425C48.4 18.7 50 17.446 50 14.344Z" fill="#292D32"/>
<path d="M21.25 14.344V4.356C21.25 1.254 19.65 0 15.675 0H5.575C1.6 0 0 1.254 0 4.356V14.322C0 17.446 1.6 18.678 5.575 18.678H15.675C19.65 18.7 21.25 17.446 21.25 14.344Z" fill="#292D32"/>
<path d="M21.25 39.0939V30.2059C21.25 26.7079 19.65 25.2999 15.675 25.2999H5.575C1.6 25.2999 0 26.7079 0 30.2059V39.0939C0 42.5919 1.6 43.9999 5.575 43.9999H15.675C19.65 43.9999 21.25 42.5919 21.25 39.0939Z" fill="#292D32"/>
</svg>
