<svg width="62" height="54" viewBox="0 0 62 54" fill="none" xmlns="http://www.w3.org/2000/svg">
<g filter="url(#filter0_d_3_1132)">
<path d="M55.9231 46H6.07692C4.94154 46 4 45.2462 4 44.3373C4 43.4284 4.94154 42.6747 6.07692 42.6747H55.9231C57.0585 42.6747 58 43.4284 58 44.3373C58 45.2462 57.0585 46 55.9231 46Z" fill="#292D32"/>
<path d="M13.2769 14.1411H8.84613C7.32306 14.1411 6.0769 15.1387 6.0769 16.358V35.4674C6.0769 36.6866 7.32306 37.6842 8.84613 37.6842H13.2769C14.8 37.6842 16.0461 36.6866 16.0461 35.4674V16.358C16.0461 15.1165 14.8 14.1411 13.2769 14.1411Z" fill="#292D32"/>
<path d="M33.2133 7.07495H28.7825C27.2595 7.07495 26.0133 8.07254 26.0133 9.29182V35.473C26.0133 36.6923 27.2595 37.6899 28.7825 37.6899H33.2133C34.7364 37.6899 35.9825 36.6923 35.9825 35.473V9.29182C35.9825 8.07254 34.7364 7.07495 33.2133 7.07495Z" fill="#292D32"/>
<path d="M53.1548 0H48.7241C47.201 0 45.9548 0.99759 45.9548 2.21687V35.4699C45.9548 36.6892 47.201 37.6867 48.7241 37.6867H53.1548C54.6779 37.6867 55.9241 36.6892 55.9241 35.4699V2.21687C55.9241 0.99759 54.6779 0 53.1548 0Z" fill="#292D32"/>
</g>
<defs>
<filter id="filter0_d_3_1132" x="0" y="0" width="62" height="54" filterUnits="userSpaceOnUse" color-interpolation-filters="sRGB">
<feFlood flood-opacity="0" result="BackgroundImageFix"/>
<feColorMatrix in="SourceAlpha" type="matrix" values="0 0 0 0 0 0 0 0 0 0 0 0 0 0 0 0 0 0 127 0" result="hardAlpha"/>
<feOffset dy="4"/>
<feGaussianBlur stdDeviation="2"/>
<feComposite in2="hardAlpha" operator="out"/>
<feColorMatrix type="matrix" values="0 0 0 0 0 0 0 0 0 0 0 0 0 0 0 0 0 0 0.25 0"/>
<feBlend mode="normal" in2="BackgroundImageFix" result="effect1_dropShadow_3_1132"/>
<feBlend mode="normal" in="SourceGraphic" in2="effect1_dropShadow_3_1132" result="shape"/>
</filter>
</defs>
</svg>
