<?xml version="1.0" standalone="no"?><svg xmlns="http://www.w3.org/2000/svg" viewBox="0 0 1440 320"><path fill="#0099ff" fill-opacity="1" d="M0,32L18.5,80C36.9,128,74,224,111,272C147.7,320,185,320,222,272C258.5,224,295,128,332,112C369.2,96,406,160,443,197.3C480,235,517,245,554,224C590.8,203,628,149,665,138.7C701.5,128,738,160,775,176C812.3,192,849,192,886,213.3C923.1,235,960,277,997,288C1033.8,299,1071,277,1108,250.7C1144.6,224,1182,192,1218,170.7C1255.4,149,1292,139,1329,117.3C1366.2,96,1403,64,1422,48L1440,32L1440,320L1421.5,320C1403.1,320,1366,320,1329,320C1292.3,320,1255,320,1218,320C1181.5,320,1145,320,1108,320C1070.8,320,1034,320,997,320C960,320,923,320,886,320C849.2,320,812,320,775,320C738.5,320,702,320,665,320C627.7,320,591,320,554,320C516.9,320,480,320,443,320C406.2,320,369,320,332,320C295.4,320,258,320,222,320C184.6,320,148,320,111,320C73.8,320,37,320,18,320L0,320Z"></path></svg>